<svg width="24" height="24" viewBox="0 0 24 24" fill="none" xmlns="http://www.w3.org/2000/svg">
<path d="M14.9815 10.61L15.0253 11.0334L15.4113 11.2129C16.9622 11.934 18 13.1426 18 14.5312C18 14.583 17.9581 14.625 17.9063 14.625H13.125H12.375V15.375V18.9208L12 19.6709L11.625 18.9208V15.375V14.625H10.875H6.09375C6.04197 14.625 6 14.583 6 14.5312C6 13.1556 7.02298 11.9409 8.58865 11.2129L8.97467 11.0334L9.01847 10.61L9.44861 6.45218L9.53418 5.625H8.70259H7.21875C7.16697 5.625 7.125 5.58303 7.125 5.53125V3.84375C7.125 3.79197 7.16697 3.75 7.21875 3.75H16.7812C16.833 3.75 16.875 3.79197 16.875 3.84375V5.53125C16.875 5.58303 16.833 5.625 16.7812 5.625H15.2974H14.4658L14.5514 6.45218L14.9815 10.61Z" stroke="#999B9E" stroke-width="1.5"/>
</svg>
